<?xml version="1.0" encoding="UTF-8" standalone="no"?>
<svg
   xmlns:dc="http://purl.org/dc/elements/1.1/"
   xmlns:cc="http://creativecommons.org/ns#"
   xmlns:rdf="http://www.w3.org/1999/02/22-rdf-syntax-ns#"
   xmlns:svg="http://www.w3.org/2000/svg"
   xmlns="http://www.w3.org/2000/svg"
   xmlns:sodipodi="http://sodipodi.sourceforge.net/DTD/sodipodi-0.dtd"
   xmlns:inkscape="http://www.inkscape.org/namespaces/inkscape"
   version="1.1"
   x="0px"
   y="0px"
   viewBox="0 0 89.99929 80.000008"
   id="svg70"
   sodipodi:docname="cart.svg"
   width="89.99929"
   height="80.000008"
   inkscape:version="1.0.1 (3bc2e813f5, 2020-09-07)">
  <metadata
     id="metadata76">
    <rdf:RDF>
      <cc:Work
         rdf:about="">
        <dc:format>image/svg+xml</dc:format>
        <dc:type
           rdf:resource="http://purl.org/dc/dcmitype/StillImage" />
        <dc:title></dc:title>
      </cc:Work>
    </rdf:RDF>
  </metadata>
  <defs
     id="defs74" />
  <sodipodi:namedview
     pagecolor="#ffffff"
     bordercolor="#666666"
     borderopacity="1"
     objecttolerance="10"
     gridtolerance="10"
     guidetolerance="10"
     inkscape:pageopacity="0"
     inkscape:pageshadow="2"
     inkscape:window-width="2560"
     inkscape:window-height="1380"
     id="namedview72"
     showgrid="false"
     fit-margin-top="0"
     fit-margin-left="0"
     fit-margin-right="0"
     fit-margin-bottom="0"
     inkscape:zoom="9.544"
     inkscape:cx="44.999647"
     inkscape:cy="41.033453"
     inkscape:window-x="1920"
     inkscape:window-y="32"
     inkscape:window-maximized="1"
     inkscape:current-layer="svg70" />
  <g
     transform="translate(-5.0003532,-962.36219)"
     id="g64">
    <path
       style="color:#000000;text-indent:0;text-transform:none;direction:ltr;baseline-shift:baseline;enable-background:accumulate"
       d="m 8.0003532,962.36219 c -1.6569,0 -3,1.34315 -3,3 0,1.65685 1.3431,3 3,3 h 9.9687998 c 4.9652,12.29749 9.8559,24.61749 14.7812,36.93751 l -4.5312,10.9062 c -0.3796,0.9093 -0.2728,2.0057 0.2751,2.8246 0.548,0.8189 1.5208,1.3358 2.5061,1.3317 h 50 c 1.5849,0.022 3.0427,-1.4149 3.0427,-3 0,-1.5851 -1.4578,-3.0224 -3.0427,-3 h -45.5 l 2.5938,-6.1875 48.1562,-3.8438 c 1.2605,-0.099 2.4015,-1.0809 2.6875,-2.3125 l 6,-25.99996 c 0.3924,-1.75123 -1.1429,-3.6621 -2.9375,-3.65625 h -65.9688 l -3.25,-8.125 c -0.445,-1.09982 -1.5948,-1.87497 -2.7812,-1.875 z m 20.4374998,16 h 18.5625 v 9 h -14.9688 z m 24.5625,0 h 12 v 9 h -12 z m 18,0 h 17.2188 l -2.0626,9 h -15.1562 z m -36.5625,15 h 12.5625 v 8.09371 l -9.0312,0.7188 z m 18.5625,0 h 12 v 6.65621 l -12,0.9688 z m 18,0 h 13.75 l -1.1875,5.1875 -12.5625,1 z m -30,29.00001 c -5.4873,0 -10,4.5126 -10,10 0,5.4873 4.5127,10 10,10 5.4873,0 10,-4.5127 10,-10 0,-5.4873 -4.5127,-10 -10,-10 z m 30,0 c -5.4873,0 -10,4.5127 -10,10 0,5.4873 4.5127,10 10,10 5.4873,0 10,-4.5127 10,-10 0,-5.4874 -4.5127,-10 -10,-10 z m -30,6 c 2.2447,0 4,1.7553 4,4 0,2.2447 -1.7553,4 -4,4 -2.2445,0 -4,-1.7554 -4,-4 0,-2.2446 1.7555,-4 4,-4 z m 30,0 c 2.2445,0 4,1.7554 4,4 0,2.2446 -1.7555,4 -4,4 -2.2447,0 -4,-1.7553 -4,-4 0,-2.2447 1.7553,-4 4,-4 z"
       fill="#000000"
       fill-opacity="1"
       stroke="none"
       marker="none"
       visibility="visible"
       display="inline"
       overflow="visible"
       id="path62" />
  </g>
</svg>
